<svg width="196" height="42" xmlns="http://www.w3.org/2000/svg"><g fill="none" fill-rule="evenodd"><path d="M143.578 24.915c-1.323 1.303-3.06 1.956-5.194 1.956-2.153 0-3.89-.653-5.194-1.936-1.304-1.284-1.956-2.962-1.956-5.016 0-2.034.652-3.694 1.975-5.016 1.323-1.304 3.022-1.956 5.135-1.956 2.133 0 3.871.652 5.214 1.956 1.323 1.322 1.996 3 1.996 5.054 0 2.016-.653 3.674-1.976 4.958zm1.976-11.435c-1.798-2.074-4.208-3.12-7.25-3.12-2.883 0-5.273.908-7.149 2.726-1.896 1.836-2.843 4.107-2.843 6.833 0 2.705.947 4.957 2.843 6.793 1.876 1.838 4.246 2.746 7.11 2.746 2.982.019 5.372-.987 7.15-2.983v1.817c0 2.212-.652 3.89-1.936 5.016-1.283 1.126-2.982 1.7-5.095 1.7-3.16-.021-5.629-1.245-7.406-3.695h-.237l-1.778 1.502v.237c1.008 1.382 2.33 2.488 3.99 3.298 1.639.81 3.456 1.205 5.43 1.205 2.805 0 5.155-.79 7.051-2.37 1.876-1.58 2.825-3.91 2.825-6.972v-17.36h-2.705v2.627zm42.07-3.12c-2.982 0-5.252 1.046-6.794 3.159v-2.666h-2.706v20.224h2.864V19.03c0-1.837.573-3.318 1.739-4.443 1.145-1.127 2.626-1.68 4.464-1.68 1.796 0 3.237.553 4.284 1.66 1.048 1.126 1.58 2.606 1.58 4.463v12.047h2.864V18.733c0-2.468-.75-4.483-2.232-6.042-1.5-1.561-3.515-2.33-6.064-2.33zm-31.364 8.867c.256-1.915 1.046-3.436 2.33-4.582 1.284-1.126 2.864-1.698 4.779-1.698 2.193 0 3.89.691 5.135 2.073 1.067 1.087 1.718 2.489 1.956 4.207h-14.2zm7.109-8.867c-2.883 0-5.292 1.027-7.229 3.061-1.954 2.034-2.922 4.582-2.922 7.623 0 3.22 1.067 5.767 3.18 7.663 2.113 1.915 4.621 2.864 7.504 2.864 1.68 0 3.339-.337 4.997-1.028 1.64-.67 2.943-1.658 3.891-2.942v-.236l-1.738-1.463h-.237c-.75.969-1.777 1.738-3.1 2.272-1.324.533-2.627.81-3.892.81-1.994 0-3.732-.633-5.194-1.916-1.48-1.264-2.29-3.022-2.448-5.254h17.103c.06-.375.079-.789.079-1.244 0-3.022-1.007-5.51-3.043-7.484-1.855-1.818-4.166-2.726-6.951-2.726zM60.977 4.63c-.513 0-.949.188-1.308.546a1.861 1.861 0 0 0 0 2.616c.36.358.795.545 1.308.545.514 0 .95-.187 1.308-.545a1.89 1.89 0 0 0 0-2.616 1.787 1.787 0 0 0-1.308-.545zm-1.42 26.447h2.824V10.853h-2.824v20.224zm61.306-7.446c0 1.6-.69 2.884-2.054 3.87-1.382.989-2.943 1.483-4.7 1.483-1.56 0-2.824-.356-3.753-1.087-.947-.711-1.422-1.659-1.422-2.844 0-1.283.515-2.33 1.56-3.14 1.047-.79 2.43-1.185 4.148-1.185 1.995 0 4.069.553 6.221 1.659v1.244zm-5.747-13.27c-1.402 0-2.804.255-4.226.769-1.44.533-2.647 1.205-3.615 2.034v.237l1.265 1.818h.236c1.838-1.522 3.951-2.272 6.34-2.272 1.738 0 3.14.454 4.188 1.382 1.046.928 1.56 2.154 1.56 3.674v1.758c-2.035-1.028-4.128-1.54-6.261-1.54-2.567 0-4.642.611-6.201 1.856-1.581 1.244-2.371 2.863-2.371 4.898 0 1.954.731 3.554 2.174 4.76 1.44 1.224 3.317 1.836 5.666 1.836 2.826 0 5.156-1.067 6.992-3.2v2.706h2.766V18.615c0-5.273-3.003-8.255-8.513-8.255zm-21.353 0c-3.397 0-6.083 1.58-7.425 4.205-1.323-2.804-3.713-4.206-7.13-4.206-2.903 0-5.155 1.046-6.754 3.159v-2.666h-2.706v20.224h2.864V19.03c0-1.837.572-3.318 1.718-4.443 1.145-1.127 2.607-1.68 4.385-1.68 1.738 0 3.1.553 4.088 1.64.967 1.105 1.461 2.606 1.461 4.483v12.047h2.923V19.03c0-1.837.572-3.318 1.718-4.443 1.145-1.127 2.607-1.68 4.385-1.68 1.718 0 3.08.553 4.067 1.64.968 1.105 1.462 2.606 1.462 4.483v12.047h2.884V18.733c0-2.508-.711-4.522-2.134-6.063-1.422-1.54-3.356-2.31-5.806-2.31z" fill="#2E2F2C"/><path d="M15.66 20.391a.81.81 0 0 1 0 1.01c-1.307 1.763-4.022 3.873-7.295 5.673a96.974 96.974 0 0 1-.207-6.163v-.042c.002-2.004.07-4.067.204-6.135 3.29 1.81 6.007 3.914 7.298 5.657zM42.7 18.54C37.493 11.512 23.336 3.097 14.157.27c-1.173-.362-2.197-.315-3.04.14C10.074.97 9.591 2 9.368 2.766c-.045.166-1.126 4.148-1.633 11.149l-.001.024a97.826 97.826 0 0 0-.25 6.93v.042c.002 2.144.078 4.335.227 6.513-1.651.866-3.217 1.533-4.538 1.93-.384.122-.585.06-.67.013-.13-.072-.229-.24-.294-.5-.009-.03-.816-3.043-.822-7.98.005-4.848.786-7.832.819-7.953.05-.171.148-.397.332-.497.153-.082.373-.08.655.008.62.19 1.308.446 2.044.759a.646.646 0 0 0 .851-.344.644.644 0 0 0 .004-.498.642.642 0 0 0-.347-.353c-.776-.33-1.506-.6-2.17-.805-.627-.193-1.183-.163-1.652.09-.46.248-.794.692-.966 1.287-.035.128-.862 3.177-.868 8.325.005 5.1.83 8.168.864 8.293.155.61.464 1.05.918 1.302.327.182.889.345 1.706.086 4.185-1.259 10.687-5.124 13.125-8.413.3-.406.445-.836.43-1.263.02-.445-.124-.88-.43-1.292-1.38-1.862-4.232-4.094-7.643-5.982.508-6.621 1.548-10.481 1.558-10.517.152-.523.47-1.22 1.114-1.568.526-.284 1.214-.298 2.043-.042 8.986 2.768 22.82 10.97 27.882 17.802.38.514.552 1.022.539 1.607.005.554-.166 1.046-.539 1.548C36.52 29.4 22.682 37.59 13.737 40.282c-1.07.338-1.729.168-2.093-.035-.48-.267-.825-.797-1.023-1.578-.03-.11-.734-2.77-1.256-7.309a.65.65 0 0 0-1.153-.33.644.644 0 0 0-.136.479c.543 4.73 1.26 7.384 1.29 7.492.287 1.131.841 1.932 1.647 2.38.361.202.887.387 1.597.387.445 0 .963-.073 1.558-.261 9.11-2.741 23.248-11.136 28.532-18.267.546-.737.82-1.552.793-2.348.02-.824-.247-1.615-.793-2.352z" fill="#D52265"/></g></svg>